<svg xmlns="http://www.w3.org/2000/svg" width="17.432" height="17.433" viewBox="0 0 17.432 17.433">
  <g id="Groupe_124" data-name="Groupe 124" transform="translate(-7.547 92.479)" opacity="0.3">
    <path id="Tracé_307" data-name="Tracé 307" d="M23.238-92.158l-1.531,1.531-3.678,3.678-4.438,4.438L9.745-78.665c-.624.624-1.26,1.231-1.868,1.868l-.025.025a1.04,1.04,0,0,0,0,1.453,1.044,1.044,0,0,0,1.453,0l1.531-1.531,3.678-3.678,4.438-4.438L22.8-88.813c.624-.624,1.26-1.231,1.868-1.868l.025-.025a1.04,1.04,0,0,0,0-1.453A1.044,1.044,0,0,0,23.238-92.158Z" transform="translate(-0.007 -0.021)" fill="#fff"/>
    <path id="Tracé_308" data-name="Tracé 308" d="M7.842-90.731,9.373-89.2l3.678,3.678,4.438,4.438,3.846,3.846c.624.624,1.231,1.26,1.868,1.868l.025.025a1.04,1.04,0,0,0,1.453,0,1.044,1.044,0,0,0,0-1.453l-1.531-1.531-3.678-3.678-4.438-4.438-3.846-3.846c-.624-.624-1.231-1.26-1.868-1.868l-.025-.025a1.04,1.04,0,0,0-1.453,0A1.044,1.044,0,0,0,7.842-90.731Z" transform="translate(0)" fill="#fff"/>
  </g>
</svg>
