<svg xmlns="http://www.w3.org/2000/svg" width="34" height="40" viewBox="0 0 34 40">
  <g id="Groupe_85" data-name="Groupe 85" transform="translate(-665 -2168)">
    <g id="Groupe_84" data-name="Groupe 84" transform="translate(665.807 2273.465)">
      <path id="Tracé_214" data-name="Tracé 214" d="M23.2-47a1.168,1.168,0,0,0-1.169,1.169v4.677H10.334v-4.677A1.168,1.168,0,0,0,9.165-47,1.168,1.168,0,0,0,8-45.835v5.846A1.168,1.168,0,0,0,9.165-38.82H23.194a1.168,1.168,0,0,0,1.169-1.169v-5.846A1.168,1.168,0,0,0,23.2-47Z" transform="translate(0 -38.645)" fill="#e2001a"/>
      <path id="Tracé_215" data-name="Tracé 215" d="M25.016-82.484a1.166,1.166,0,0,0,.382.254,1.17,1.17,0,0,0,.893,0,1.17,1.17,0,0,0,.382-.254l4.675-4.675a1.169,1.169,0,0,0,0-1.653,1.169,1.169,0,0,0-1.653,0l-2.681,2.681v-7.7A1.168,1.168,0,0,0,25.844-95a1.168,1.168,0,0,0-1.169,1.169v7.7l-2.681-2.681a1.165,1.165,0,0,0-.827-.342,1.165,1.165,0,0,0-.827.342,1.169,1.169,0,0,0,0,1.653Z" transform="translate(-9.664 0)" fill="#e2001a"/>
    </g>
    <g id="Rectangle_54" data-name="Rectangle 54" transform="translate(665 2168)" fill="none" stroke="#354253" stroke-width="2">
      <rect width="34" height="40" rx="5" stroke="none"/>
      <rect x="1" y="1" width="32" height="38" rx="4" fill="none"/>
    </g>
  </g>
</svg>
