<svg xmlns="http://www.w3.org/2000/svg" width="48.938" height="56.096" viewBox="0 0 48.938 56.096">
  <g id="Groupe_152" data-name="Groupe 152" transform="translate(1.25 0.226)">
    <path id="Tracé_21" data-name="Tracé 21" d="M66.985,97.333C80.8,94.181,90.186,78.4,90.2,69.435c.013-10.88.008-25.665.008-25.665H43.771s0,14.694,0,25.7C43.773,78.519,53.2,94.159,66.985,97.333Z" transform="translate(-43.77 -42.745)" fill="none" stroke="#e2001a" stroke-width="2.501"/>
    <path id="Tracé_20" data-name="Tracé 20" d="M66.985,97.333C80.8,94.181,90.186,78.4,90.2,69.435c.013-10.88.008-25.665.008-25.665H43.771s0,14.694,0,25.7c0,9.045,9.434,24.685,23.214,27.859" transform="translate(-43.77 -42.745)" fill="#fff"/>
    <path id="Tracé_22" data-name="Tracé 22" d="M67.7,95.243c12.315-2.81,20.688-16.879,20.7-24.877.014-9.7.007-22.884.007-22.884H47s0,13.1,0,22.92c0,8.065,8.411,22.01,20.7,24.842" transform="translate(-44.479 -43.557)" fill="#e2001a"/>
    <path id="Tracé_26" data-name="Tracé 26" d="M68.976,73.732l-16.1-6.62,5.434,6.581-5.434,6.564Z" transform="translate(-45.774 -47.847)" fill="#fff"/>
    <path id="Tracé_25" data-name="Tracé 25" d="M73.539,73.737l16.1,6.621L84.2,73.776l5.433-6.564Z" transform="translate(-50.322 -47.868)" fill="#fff"/>
    <path id="Tracé_23" data-name="Tracé 23" d="M71.656,75.547,65.05,91.677l6.568-5.444,6.55,5.444Z" transform="translate(-48.453 -49.69)" fill="#fff"/>
    <path id="Tracé_24" data-name="Tracé 24" d="M71.683,71.086l6.607-16.131L71.723,60.4,65.17,54.955Z" transform="translate(-48.48 -45.19)" fill="#fff"/>
  </g>
</svg>
