<svg xmlns="http://www.w3.org/2000/svg" width="17.432" height="17.433"><g data-name="Groupe 124" opacity=".3" fill="#fff"><path data-name="Tracé 307" d="M15.684.3l-1.531 1.531-3.678 3.678-4.438 4.438-3.846 3.846c-.624.624-1.26 1.231-1.868 1.868l-.025.025a1.04 1.04 0 000 1.453 1.044 1.044 0 001.453 0l1.531-1.531L6.96 11.93l4.438-4.438 3.848-3.847c.624-.624 1.26-1.231 1.868-1.868l.025-.025a1.04 1.04 0 000-1.453A1.044 1.044 0 0015.684.3z"/><path data-name="Tracé 308" d="M.295 1.748l1.531 1.531 3.678 3.678 4.438 4.438 3.846 3.846c.624.624 1.231 1.26 1.868 1.868l.025.025a1.04 1.04 0 001.453 0 1.044 1.044 0 000-1.453l-1.531-1.531-3.678-3.678-4.438-4.438-3.846-3.846C3.017 1.564 2.41.928 1.773.32L1.748.295a1.04 1.04 0 00-1.453 0 1.044 1.044 0 000 1.453z"/></g></svg>