<svg xmlns="http://www.w3.org/2000/svg" width="34" height="40"><g data-name="Groupe 85"><g data-name="Groupe 84" fill="#e2001a"><path data-name="Tracé 214" d="M24.007 19.82a1.168 1.168 0 00-1.169 1.169v4.677H11.141v-4.677a1.168 1.168 0 00-1.169-1.169 1.168 1.168 0 00-1.165 1.165v5.846A1.168 1.168 0 009.972 28h14.029a1.168 1.168 0 001.169-1.169v-5.846a1.168 1.168 0 00-1.163-1.165z"/><path data-name="Tracé 215" d="M16.159 22.981a1.166 1.166 0 00.382.254 1.17 1.17 0 00.893 0 1.17 1.17 0 00.382-.254l4.675-4.675a1.169 1.169 0 000-1.653 1.169 1.169 0 00-1.653 0l-2.681 2.681v-7.7a1.168 1.168 0 00-1.17-1.169 1.168 1.168 0 00-1.169 1.169v7.7l-2.681-2.681a1.165 1.165 0 00-.827-.342 1.165 1.165 0 00-.827.342 1.169 1.169 0 000 1.653z"/></g><g data-name="Rectangle 54" fill="none" stroke="#354253" stroke-width="2"><rect width="34" height="40" rx="5" stroke="none"/><rect x="1" y="1" width="32" height="38" rx="4"/></g></g></svg>