<svg xmlns="http://www.w3.org/2000/svg" width="48.938" height="56.096"><g data-name="Groupe 152"><path data-name="Tracé 21" d="M24.465 54.814C38.28 51.662 47.666 35.881 47.68 26.916c.013-10.88.008-25.665.008-25.665H1.251v25.7C1.253 36 10.68 51.64 24.465 54.814z" fill="none" stroke="#e2001a" stroke-width="2.501"/><path data-name="Tracé 20" d="M24.465 54.814C38.28 51.662 47.666 35.881 47.68 26.916c.013-10.88.008-25.665.008-25.665H1.251v25.7c0 9.045 9.434 24.685 23.214 27.859" fill="#fff"/><path data-name="Tracé 22" d="M24.471 51.912c12.315-2.81 20.688-16.879 20.7-24.877.014-9.7.007-22.884.007-22.884H3.771v22.92c0 8.065 8.411 22.01 20.7 24.842" fill="#e2001a"/><path data-name="Tracé 26" d="M24.452 26.111l-16.1-6.62 5.434 6.581-5.434 6.564z" fill="#fff"/><path data-name="Tracé 25" d="M24.467 26.095l16.1 6.621-5.439-6.582 5.433-6.564z" fill="#fff"/><path data-name="Tracé 23" d="M24.453 26.083l-6.606 16.13 6.568-5.444 6.55 5.444z" fill="#fff"/><path data-name="Tracé 24" d="M24.453 26.122L31.06 9.991l-6.567 5.445-6.553-5.445z" fill="#fff"/></g></svg>